<?xml version="1.0" encoding="UTF-8" standalone="no"?>
<svg
   xmlns:dc="http://purl.org/dc/elements/1.1/"
   xmlns:cc="http://creativecommons.org/ns#"
   xmlns:rdf="http://www.w3.org/1999/02/22-rdf-syntax-ns#"
   xmlns:svg="http://www.w3.org/2000/svg"
   xmlns="http://www.w3.org/2000/svg"
   xmlns:sodipodi="http://sodipodi.sourceforge.net/DTD/sodipodi-0.dtd"
   xmlns:inkscape="http://www.inkscape.org/namespaces/inkscape"
   version="1.1"
   id="Layer_1"
   viewBox="-103.5 -85.5 256 256"
   enable-background="new -103.5 -85.5 256 256"
   xml:space="preserve"
   sodipodi:docname="macOS dark taskbar.svg"
   inkscape:version="0.92.3 (2405546, 2018-03-11)"><metadata
   id="metadata13"><rdf:RDF><cc:Work
       rdf:about=""><dc:format>image/svg+xml</dc:format><dc:type
         rdf:resource="http://purl.org/dc/dcmitype/StillImage" /><dc:title></dc:title></cc:Work></rdf:RDF></metadata><defs
   id="defs11"><pattern
     y="0"
     x="0"
     height="6"
     width="6"
     patternUnits="userSpaceOnUse"
     id="EMFhbasepattern" /></defs><sodipodi:namedview
   pagecolor="#ffffff"
   bordercolor="#666666"
   borderopacity="1"
   objecttolerance="10"
   gridtolerance="10"
   guidetolerance="10"
   inkscape:pageopacity="0"
   inkscape:pageshadow="2"
   inkscape:window-width="2560"
   inkscape:window-height="1360"
   id="namedview9"
   showgrid="false"
   showguides="false"
   inkscape:zoom="2.5532703"
   inkscape:cx="168.90105"
   inkscape:cy="115.97401"
   inkscape:window-x="-11"
   inkscape:window-y="35"
   inkscape:window-maximized="1"
   inkscape:current-layer="g4535" />
<linearGradient
   id="win-8_1_"
   gradientUnits="userSpaceOnUse"
   x1="-78.4456"
   y1="-77.1485"
   x2="160.8416"
   y2="162.1387">
	<stop
   offset="0"
   style="stop-color:#0078D0"
   id="stop2" />
	<stop
   offset="1"
   style="stop-color:#0062E0"
   id="stop4" />
</linearGradient>

<g
   id="g4535"><path
     id="path827"
     d="m 109.191,-14.14518 c 5.73031,-7.177951 9.65104,-16.889295 8.5653,-26.781594 -8.2637,0.361909 -18.578233,5.730294 -24.610124,12.727288 -5.247746,6.152529 -9.952626,16.225788 -8.746247,25.7561745 9.289114,0.663508 18.819501,-4.7048742 24.791071,-11.7018685 z m 20.991,61.947525 C 129.94073,26.751043 147.43321,16.496827 148.21735,16.014276 138.32506,1.5980555 123.00405,-0.39246851 117.63566,-0.57342451 104.72741,-1.9004415 92.301713,7.1473957 85.726948,7.1473957 c -6.695396,0 -16.768661,-7.53986421 -27.686382,-7.35890721 C 44.04658,0.02976449 30.957379,8.1124987 23.719108,20.71915 8.9409764,46.354688 19.979336,84.114326 34.154282,104.80371 c 7.117631,10.19389 15.441634,21.53385 26.299043,21.11162 10.616125,-0.42223 14.597172,-6.75572 27.445105,-6.75572 12.72729,0 16.46706,6.75572 27.56574,6.51444 11.40029,-0.18095 18.57824,-10.19389 25.45459,-20.44811 8.14306,-11.701864 11.4606,-23.102134 11.58124,-23.705324 -0.24128,-0.12064 -22.13705,-8.44465 -22.318,-33.718271 z"
     style="fill:#ffffff;fill-opacity:1;fill-rule:evenodd;stroke:none;stroke-width:0.75399202"
     inkscape:connector-curvature="0" /></g></svg>